# File created by Blade
# Date/Time:  Wed Jan 21 19:08:52 2015
# Frame Rate: 120.000 fps
#------------------------------------------------------
:FULLY-SPECIFIED
:DEGREES
3154
root -7.576315 32.005465 -5.262974 54.297273 16.883530 -4.253899
RightUpLeg -55.627436 3.823164 10.439166
RightLeg -6.833246 -0.000000 0.000000
RightFoot -4.182590 -8.875868 17.760272
RightToeBase 24.185032 -0.000000 -0.000000
LeftUpLeg -45.136175 -9.403138 -1.592338
LeftLeg -1.552087 -0.000000 0.000000
LeftFoot -11.060569 -11.922319 -5.160009
LeftToeBase 16.604812 -0.000000 -0.000000
Spine -46.819201 15.979129 21.694722
RightShoulder -13.337353 14.751080 -9.511100
RightArm -10.185120 -6.739875 80.706898
RightForeArm 18.823466 -0.000000 -1.008941
RightHand 17.658181 -0.000000 -5.543709
RightHandThumb1 -24.326973 -0.000000 -32.862282
LeftShoulder -16.348543 -10.360999 63.332145
LeftArm 15.285754 -26.631886 -1.901960
LeftForeArm 8.301830 0.000000 8.044946
LeftHand -23.711820 -0.000000 20.366322
LeftHandThumb1 -26.253704 0.000000 33.147579
Head -11.250206 -12.970152 33.044906
3155
root -7.601496 32.010492 -5.245794 54.279383 16.927338 -4.222902
RightUpLeg -55.568715 3.779404 10.519416
RightLeg -6.850339 -0.000000 0.000000
RightFoot -4.092625 -8.784656 17.640660
RightToeBase 24.051510 -0.000000 -0.000000
LeftUpLeg -45.076351 -9.333144 -1.621150
LeftLeg -1.571149 -0.000000 0.000000
LeftFoot -11.061656 -12.069650 -5.397800
LeftToeBase 16.865251 -0.000000 -0.000000
Spine -46.909366 15.802994 21.425370
RightShoulder -13.376100 14.666294 -9.792517
RightArm -10.221444 -7.319489 80.916431
RightForeArm 19.536160 -0.000000 -0.950413
RightHand 17.587178 0.000000 -5.235573
RightHandThumb1 -24.326973 -0.000000 -32.862282
LeftShoulder -16.194985 -10.262256 63.081399
LeftArm 15.034795 -26.497319 -2.208665
LeftForeArm 8.353427 -0.000000 8.027165
LeftHand -23.622261 -0.000000 20.161119
LeftHandThumb1 -26.253704 0.000000 33.147579
Head -11.122529 -13.017846 32.490983
3156
root -7.626306 32.015897 -5.227478 54.262053 16.975543 -4.194795
RightUpLeg -55.513728 3.758390 10.555429
RightLeg -6.864663 -0.000000 0.000000
RightFoot -4.056261 -8.732273 17.647025
RightToeBase 24.050563 -0.000000 -0.000000
LeftUpLeg -45.018663 -9.250696 -1.654562
LeftLeg -1.578159 -0.000000 0.000000
LeftFoot -11.088831 -12.266623 -5.464218
LeftToeBase 17.037753 -0.000000 -0.000000
Spine -46.997082 15.619833 21.146858
RightShoulder -13.416595 14.590211 -10.031214
RightArm -10.192185 -7.367897 80.988100
RightForeArm 19.704890 -0.000000 -0.990325
RightHand 17.567703 -0.000000 -5.068411
RightHandThumb1 -24.326973 -0.000000 -32.862282
LeftShoulder -16.103740 -10.228563 62.873029
LeftArm 14.894268 -26.333870 -2.564411
LeftForeArm 8.456562 -0.000000 7.956807
LeftHand -23.583375 -0.000000 19.993933
LeftHandThumb1 -26.253704 0.000000 33.147579
Head -11.016064 -13.088007 31.992270
3157
root -7.651187 32.020736 -5.208195 54.240426 17.039597 -4.162054
RightUpLeg -55.450230 3.737627 10.588671
RightLeg -6.886099 -0.000000 0.000000
RightFoot -4.047511 -8.715359 17.628750
RightToeBase 24.085303 -0.000000 -0.000000
LeftUpLeg -44.964307 -9.150799 -1.705507
LeftLeg -1.572111 -0.000000 0.000000
LeftFoot -11.006426 -12.503342 -5.806603
LeftToeBase 17.102292 -0.000000 -0.000000
Spine -47.071843 15.400952 20.916577
RightShoulder -13.439158 14.551494 -10.286015
RightArm -10.190969 -7.321478 81.073682
RightForeArm 19.759336 -0.000000 -1.055665
RightHand 17.800948 -0.000000 -5.130201
RightHandThumb1 -24.326973 -0.000000 -32.862282
LeftShoulder -15.991246 -10.068624 62.624959
LeftArm 14.692535 -26.184339 -2.868491
LeftForeArm 8.457076 -0.000000 7.876763
LeftHand -23.482999 -0.000000 19.883324
LeftHandThumb1 -26.253704 0.000000 33.147579
Head -10.907599 -13.125709 31.456057
3158
root -7.674820 32.026464 -5.188779 54.215615 17.104819 -4.150079
RightUpLeg -55.398315 3.723858 10.640569
RightLeg -6.873462 -0.000000 0.000000
RightFoot -4.017387 -8.673739 17.585475
RightToeBase 24.011365 -0.000000 -0.000000
LeftUpLeg -44.910990 -9.072762 -1.710632
LeftLeg -1.569692 -0.000000 0.000000
LeftFoot -11.016638 -12.660905 -6.045717
LeftToeBase 17.325679 -0.000000 -0.000000
Spine -47.148024 15.216747 20.676701
RightShoulder -13.474725 14.474525 -10.551735
RightArm -10.193004 -7.091887 81.112720
RightForeArm 19.636804 -0.000000 -1.007043
RightHand 17.868271 -0.000000 -5.074873
RightHandThumb1 -24.326973 -0.000000 -32.862282
LeftShoulder -15.904158 -9.991244 62.392831
LeftArm 14.573600 -26.033532 -3.208475
LeftForeArm 8.507498 -0.000000 7.744717
LeftHand -23.353489 -0.000000 19.703435
LeftHandThumb1 -26.253704 0.000000 33.147579
Head -10.780943 -13.201601 30.932221
3159
root -7.698186 32.031549 -5.168501 54.205317 17.173540 -4.127534
RightUpLeg -55.349432 3.722885 10.662025
RightLeg -6.882873 -0.000000 0.000000
RightFoot -4.044113 -8.692738 17.624327
RightToeBase 24.064815 -0.000000 -0.000000
LeftUpLeg -44.861869 -9.019701 -1.702853
LeftLeg -1.576839 -0.000000 0.000000
LeftFoot -11.110534 -12.768501 -6.119043
LeftToeBase 17.699941 -0.000000 -0.000000
Spine -47.228590 15.010181 20.454527
RightShoulder -13.497368 14.440303 -10.832321
RightArm -10.243901 -6.967892 81.174289
RightForeArm 19.660626 -0.000000 -0.929970
RightHand 17.812796 -0.000000 -5.051590
RightHandThumb1 -24.326973 -0.000000 -32.862282
LeftShoulder -15.820246 -9.861006 62.146134
LeftArm 14.436632 -25.780979 -3.495478
LeftForeArm 8.408565 -0.000000 7.599240
LeftHand -23.355050 -0.000000 19.627797
LeftHandThumb1 -26.253704 0.000000 33.147579
Head -10.671214 -13.251498 30.400248
3160
root -7.719220 32.035627 -5.147064 54.211846 17.237493 -4.091953
RightUpLeg -55.316364 3.703251 10.708438
RightLeg -6.876424 -0.000000 0.000000
RightFoot -4.070602 -8.698077 17.569879
RightToeBase 24.043723 -0.000000 -0.000000
LeftUpLeg -44.817219 -8.980770 -1.697208
LeftLeg -1.608686 -0.000000 0.000000
LeftFoot -11.022018 -12.942089 -6.562820
LeftToeBase 17.866577 -0.000000 -0.000000
Spine -47.323937 14.801745 20.223829
RightShoulder -13.541745 14.394273 -11.149361
RightArm -10.272467 -6.922908 81.283695
RightForeArm 19.680661 -0.000000 -0.890624
RightHand 17.850780 -0.000000 -5.030832
RightHandThumb1 -24.326973 -0.000000 -32.862282
LeftShoulder -15.658894 -9.842916 61.910947
LeftArm 14.120605 -25.468820 -3.715203
LeftForeArm 8.355649 -0.000000 7.533706
LeftHand -23.268712 -0.000000 19.475386
LeftHandThumb1 -26.253704 0.000000 33.147579
Head -10.551013 -13.321489 29.838389
3161
root -7.740413 32.041533 -5.123742 54.184197 17.305224 -4.068306
RightUpLeg -55.258666 3.686130 10.753608
RightLeg -6.851888 -0.000000 0.000000
RightFoot -4.086312 -8.697183 17.534524
RightToeBase 24.007313 -0.000000 -0.000000
LeftUpLeg -44.743194 -8.915155 -1.699800
LeftLeg -1.618721 -0.000000 0.000000
LeftFoot -11.108965 -13.123673 -6.844316
LeftToeBase 18.437476 -0.000000 -0.000000
Spine -47.386392 14.580146 20.012883
RightShoulder -13.559506 14.325750 -11.431735
RightArm -10.293941 -6.806849 81.349487
RightForeArm 19.766358 -0.000000 -0.800880
RightHand 17.842368 -0.000000 -5.055608
RightHandThumb1 -24.326973 -0.000000 -32.862282
LeftShoulder -15.627885 -9.712480 61.632438
LeftArm 14.077067 -25.298957 -4.006505
LeftForeArm 8.284772 0.000000 7.394021
LeftHand -23.269870 0.000000 19.274587
LeftHandThumb1 -26.253704 0.000000 33.147579
Head -10.431209 -13.377954 29.319090
3162
root -7.759137 32.045508 -5.099676 54.156887 17.390323 -4.037988
RightUpLeg -55.200791 3.651863 10.813274
RightLeg -6.819204 -0.000000 0.000000
RightFoot -4.157696 -8.699600 17.515673
RightToeBase 24.049781 -0.000000 -0.000000
LeftUpLeg -44.675739 -8.839074 -1.720239
LeftLeg -1.599741 -0.000000 0.000000
LeftFoot -11.149706 -13.385412 -7.266769
LeftToeBase 18.935012 -0.000000 -0.000000
Spine -47.447555 14.349696 19.814450
RightShoulder -13.618978 14.307934 -11.763879
RightArm -10.353942 -6.755881 81.439027
RightForeArm 19.774642 -0.000000 -0.728852
RightHand 17.924043 -0.000000 -4.991499
RightHandThumb1 -24.326973 -0.000000 -32.862282
LeftShoulder -15.504325 -9.627711 61.425664
LeftArm 13.815407 -25.115122 -4.335284
LeftForeArm 8.259038 -0.000000 7.355465
LeftHand -23.231339 -0.000000 19.116568
LeftHandThumb1 -26.253704 0.000000 33.147579
Head -10.321195 -13.417124 28.779714
3163
root -7.776992 32.049832 -5.073848 54.115998 17.459653 -4.007140
RightUpLeg -55.150710 3.649875 10.820740
RightLeg -6.739871 -0.000000 0.000000
RightFoot -4.288266 -8.750236 17.503323
RightToeBase 24.092168 -0.000000 -0.000000
LeftUpLeg -44.597223 -8.721219 -1.787862
LeftLeg -1.566009 -0.000000 0.000000
LeftFoot -11.142043 -13.688635 -7.661129
LeftToeBase 19.232675 -0.000000 -0.000000
Spine -47.495921 14.125151 19.603541
RightShoulder -13.660623 14.284809 -12.077236
RightArm -10.450926 -6.558457 81.490145
RightForeArm 19.822833 -0.000000 -0.544307
RightHand 17.831161 -0.000000 -4.977404
RightHandThumb1 -24.326973 -0.000000 -32.862282
LeftShoulder -15.533344 -9.465966 61.158324
LeftArm 13.912947 -25.123702 -4.757073
LeftForeArm 8.300753 0.000000 7.135261
LeftHand -23.115644 -0.000000 18.929397
LeftHandThumb1 -26.253704 0.000000 33.147579
Head -10.204841 -13.479767 28.257303
3164
root -7.793549 32.053482 -5.045393 54.048801 17.538949 -3.966028
RightUpLeg -55.049457 3.605157 10.880999
RightLeg -6.693503 -0.000000 0.000000
RightFoot -4.413277 -8.781643 17.500798
RightToeBase 24.138634 -0.000000 -0.000000
LeftUpLeg -44.489925 -8.606659 -1.872888
LeftLeg -1.511365 -0.000000 0.000000
LeftFoot -11.196213 -13.997375 -8.023124
LeftToeBase 19.653917 -0.000000 -0.000000
Spine -47.519607 13.864809 19.425407
RightShoulder -13.674080 14.228406 -12.398033
RightArm -10.518486 -6.426659 81.563410
RightForeArm 19.782055 -0.000000 -0.397873
RightHand 17.843626 0.000000 -5.022650
RightHandThumb1 -24.326973 -0.000000 -32.862282
LeftShoulder -15.484947 -9.417141 60.933751
LeftArm 13.833378 -25.001865 -5.141698
LeftForeArm 8.337683 -0.000000 6.980872
LeftHand -22.979658 -0.000000 18.804760
LeftHandThumb1 -26.253704 0.000000 33.147579
Head -10.064328 -13.521659 27.715958
3165
root -7.807800 32.056565 -5.016420 53.996909 17.572314 -3.906833
RightUpLeg -54.970806 3.534634 10.963572
RightLeg -6.621775 -0.000000 0.000000
RightFoot -4.536516 -8.767448 17.392228
RightToeBase 24.241545 -0.000000 -0.000000
LeftUpLeg -44.369532 -8.543281 -1.947388
LeftLeg -1.498571 -0.000000 0.000000
LeftFoot -11.251737 -14.186275 -8.485244
LeftToeBase 20.172305 -0.000000 -0.000000
Spine -47.552023 13.625129 19.162431
RightShoulder -13.729462 14.148731 -12.699080
RightArm -10.515711 -6.472996 81.633367
RightForeArm 19.778230 -0.000000 -0.368371
RightHand 17.957344 -0.000000 -4.900166
RightHandThumb1 -24.326973 -0.000000 -32.862282
LeftShoulder -15.411598 -9.370755 60.714639
LeftArm 13.706949 -24.902097 -5.486351
LeftForeArm 8.347908 -0.000000 6.885047
LeftHand -22.938528 0.000000 18.572131
LeftHandThumb1 -26.253704 0.000000 33.147579
Head -9.953173 -13.558882 27.244118
3166
root -7.823882 32.058735 -4.986075 53.943955 17.637450 -3.854653
RightUpLeg -54.899644 3.515439 10.982251
RightLeg -6.532924 -0.000000 0.000000
RightFoot -4.707110 -8.837134 17.313085
RightToeBase 24.268827 -0.000000 -0.000000
LeftUpLeg -44.249267 -8.511360 -1.967393
LeftLeg -1.500293 -0.000000 0.000000
LeftFoot -11.329877 -14.352734 -8.911764
LeftToeBase 20.701338 -0.000000 -0.000000
Spine -47.575276 13.348081 18.970091
RightShoulder -13.759255 14.076555 -13.014288
RightArm -10.522980 -6.437410 81.733366
RightForeArm 19.947811 -0.000000 -0.271273
RightHand 17.976394 -0.000000 -4.980338
RightHandThumb1 -24.326973 -0.000000 -32.862282
LeftShoulder -15.324010 -9.284757 60.483729
LeftArm 13.506120 -24.753026 -5.782375
LeftForeArm 8.222583 -0.000000 6.777995
LeftHand -22.871507 -0.000000 18.358075
LeftHandThumb1 -26.253704 0.000000 33.147579
Head -9.799731 -13.692617 26.728306
